Coordinates
version=1
nRows=16
nColumns=63
inDegrees=yes

Units are S.I. units (second, meters, Newtons, ...)
If the header above contains a line with 'inDegrees', this indicates whether rotational values are in degrees (yes) or radians (no).

endheader
time	pelvis_tilt	pelvis_list	pelvis_rotation	pelvis_tx	pelvis_ty	pelvis_tz	hip_flexion_r	hip_adduction_r	hip_rotation_r	knee_angle_r	knee_angle_r_beta	ankle_angle_r	subtalar_angle_r	mtp_angle_r	hip_flexion_l	hip_adduction_l	hip_rotation_l	knee_angle_l	knee_angle_l_beta	ankle_angle_l	subtalar_angle_l	mtp_angle_l	L5_S1_Flex_Ext	L5_S1_Lat_Bending	L5_S1_axial_rotation	L4_L5_Flex_Ext	L4_L5_Lat_Bending	L4_L5_axial_rotation	L3_L4_Flex_Ext	L3_L4_Lat_Bending	L3_L4_axial_rotation	L2_L3_Flex_Ext	L2_L3_Lat_Bending	L2_L3_axial_rotation	L1_L2_Flex_Ext	L1_L2_Lat_Bending	L1_L2_axial_rotation	L1_T12_Flex_Ext	L1_T12_Lat_Bending	L1_T12_axial_rotation	Abs_r3	Abs_r2	Abs_r1	Abs_t1	Abs_t2	neck_flexion	neck_bending	neck_rotation	arm_flex_r	arm_add_r	arm_rot_r	elbow_flex_r	pro_sup_r	wrist_flex_r	wrist_dev_r	arm_flex_l	arm_add_l	arm_rot_l	elbow_flex_l	pro_sup_l	wrist_flex_l	wrist_dev_l
2.783333	-2.907987	-10.226212	94.537517	0.178483	0.470098	1.028647	22.123886	-3.454679	-2.499563	26.101236	0.455553	42.736755	0.060524	0.000000	21.153870	4.406244	11.099031	21.534251	0.375844	36.584140	-11.963887	0.000000	0.096173	-0.146886	0.093828	0.178602	-0.195358	0.099692	0.158002	-0.357138	0.099692	0.109916	-0.357138	0.082099	0.089306	-0.299530	0.076235	0.054953	-0.227526	0.070371	0.686952	-1.661602	0.521843	0.000000	0.000000	26.443749	2.973420	14.661113	17.987407	-18.455244	98.601032	12.973983	5.465730	-6.944713	-16.263098	3.686511	-21.029827	13.881426	28.394013	86.524007	-18.136560	-0.524294
2.800000	-3.214220	-10.260428	94.561579	0.178869	0.470509	1.028464	21.946238	-3.803836	-2.655653	25.904446	0.452118	42.444142	0.005973	0.000000	20.834836	4.720662	11.392018	20.944732	0.365555	36.203469	-12.129774	0.000000	0.088701	-0.192920	0.086776	0.164726	-0.256584	0.092200	0.145726	-0.469067	0.092200	0.101376	-0.469067	0.075929	0.082367	-0.393403	0.070506	0.050684	-0.298834	0.065082	0.633579	-2.182354	0.482624	0.000000	0.000000	26.397863	2.925098	14.466011	18.095007	-18.241262	98.274795	13.031030	5.598075	-7.178979	-16.682575	3.601246	-21.275438	13.835634	28.404110	86.622337	-17.997625	-0.611986
2.816667	-3.501790	-10.329369	94.591162	0.179363	0.470416	1.028459	21.962361	-4.090601	-2.647011	25.939740	0.452734	42.268460	-0.214567	0.000000	20.725737	4.995844	11.501655	20.645345	0.360329	36.023163	-12.133663	0.000000	0.083043	-0.240166	0.071270	0.154220	-0.319421	0.075725	0.136432	-0.583940	0.075725	0.094910	-0.583940	0.062362	0.077114	-0.489747	0.057907	0.047451	-0.372017	0.053453	0.593171	-2.716808	0.396384	0.000000	0.000000	26.392025	2.940494	14.160449	18.247849	-17.973617	98.104148	13.046942	5.726856	-7.386976	-17.040079	3.575130	-21.542997	13.940060	28.310845	86.687384	-17.664817	-0.878014
2.833333	-3.756565	-10.410704	94.574970	0.179968	0.469869	1.028641	22.164260	-4.287595	-2.456629	26.211457	0.457476	42.220355	-0.544138	0.000000	20.798180	5.202098	11.402299	20.628386	0.360033	36.052261	-11.993084	0.000000	0.077093	-0.285320	0.057670	0.143169	-0.379475	0.061274	0.126656	-0.693726	0.061274	0.088109	-0.693726	0.050461	0.071588	-0.581824	0.046857	0.044051	-0.441960	0.043252	0.550667	-3.227591	0.320742	0.000000	0.000000	26.424547	2.984234	13.780267	18.455604	-17.667801	98.236827	13.000218	5.842555	-7.650263	-17.390435	3.622662	-21.802443	14.195457	28.126895	86.658999	-17.167126	-1.202867
2.850000	-3.950608	-10.510413	94.564656	0.180580	0.468918	1.029049	22.536053	-4.390574	-2.124109	26.677121	0.465604	42.314611	-0.978723	0.000000	21.066372	5.333083	11.141662	20.903570	0.364836	36.277155	-11.702070	0.000000	0.072903	-0.324528	0.038146	0.135389	-0.431622	0.040531	0.119773	-0.789057	0.040531	0.083321	-0.789057	0.033378	0.067698	-0.661777	0.030994	0.041657	-0.502694	0.028610	0.520741	-3.671125	0.212159	0.000000	0.000000	26.497489	3.055064	13.345185	18.711866	-17.347494	98.566754	12.911351	5.902948	-7.916064	-17.709091	3.723119	-22.020952	14.542465	27.856570	86.573416	-16.580342	-1.701018
2.866667	-4.090951	-10.621543	94.537759	0.181238	0.467665	1.029670	23.054871	-4.398304	-1.646292	27.304433	0.476552	42.516809	-1.518448	0.000000	21.492123	5.384600	10.703134	21.416076	0.373781	36.683594	-11.270228	0.000000	0.070606	-0.358130	0.021158	0.131122	-0.476314	0.022481	0.115998	-0.870758	0.022481	0.080696	-0.870758	0.018514	0.065565	-0.730300	0.017191	0.040344	-0.554744	0.015869	0.504331	-4.051243	0.117677	0.000000	0.000000	26.593026	3.145941	12.871739	19.004151	-17.026651	99.105451	12.788962	5.940806	-8.178349	-17.988877	3.886342	-22.203756	14.969146	27.531939	86.378360	-15.793332	-2.196010
2.883333	-4.228986	-10.698138	94.474279	0.181936	0.466280	1.030461	23.647896	-4.363300	-1.028768	28.062408	0.489781	42.834336	-2.090401	0.000000	21.963813	5.407053	10.112478	22.056566	0.384960	37.239280	-10.736377	0.000000	0.063063	-0.391033	0.013953	0.117114	-0.520073	0.014825	0.103606	-0.950757	0.014825	0.072074	-0.950757	0.012209	0.058560	-0.797394	0.011337	0.036034	-0.605709	0.010465	0.450450	-4.423438	0.077602	0.000000	0.000000	26.699496	3.243190	12.309426	19.315254	-16.706176	99.767310	12.652322	5.896855	-8.452483	-18.242203	4.116210	-22.357923	15.463608	27.218140	86.077717	-14.874905	-2.536331
2.900000	-4.339175	-10.784317	94.379333	0.182677	0.464815	1.031344	24.315888	-4.262208	-0.288158	28.882155	0.504089	43.207755	-2.724682	0.000000	22.488531	5.371201	9.366004	22.759842	0.397234	37.917345	-10.071406	0.000000	0.059688	-0.419798	0.015474	0.110847	-0.558332	0.016441	0.098062	-1.020697	0.016441	0.068218	-1.020697	0.013540	0.055426	-0.856053	0.012573	0.034106	-0.650267	0.011605	0.426347	-4.748841	0.086061	0.000000	0.000000	26.802544	3.336224	11.701673	19.624917	-16.404769	100.580345	12.521689	5.791226	-8.721712	-18.472536	4.357716	-22.472799	15.969901	26.927916	85.615331	-13.813517	-2.747985
2.916667	-4.470003	-10.835488	94.257975	0.183438	0.463438	1.032262	24.974309	-4.173858	0.466096	29.724347	0.518788	43.639003	-3.272237	0.000000	22.959755	5.341100	8.553347	23.433693	0.408995	38.641079	-9.366062	0.000000	0.052934	-0.448878	0.026760	0.098304	-0.597007	0.028432	0.086965	-1.091401	0.028432	0.060498	-1.091401	0.023415	0.049154	-0.915351	0.021742	0.030246	-0.695312	0.020070	0.378101	-5.077794	0.148829	0.000000	0.000000	26.875418	3.436266	11.102397	19.898077	-16.130012	101.233536	12.432672	5.766379	-8.998042	-18.656882	4.606921	-22.552040	16.410778	26.724470	85.126607	-12.648659	-2.711104
2.933333	-4.600749	-10.878309	94.119355	0.184237	0.462206	1.033126	25.608089	-4.070021	1.251734	30.527649	0.532808	44.049869	-3.836870	0.000000	23.365552	5.282801	7.614973	24.011869	0.419086	39.385986	-8.504569	0.000000	0.048737	-0.475567	0.044232	0.090510	-0.632503	0.046997	0.080071	-1.156292	0.046997	0.055702	-1.156292	0.038703	0.045258	-0.969775	0.035939	0.027849	-0.736653	0.033174	0.348127	-5.379703	0.246005	0.000000	0.000000	26.904074	3.534870	10.575761	20.128820	-15.875058	101.927212	12.355024	5.742248	-9.235371	-18.778179	4.805339	-22.598626	16.689719	26.632091	84.674352	-11.378474	-2.488746
2.950000	-4.732410	-10.913725	93.962718	0.185056	0.461201	1.033874	26.178001	-3.960960	2.028668	31.237194	0.545192	44.401128	-4.396182	0.000000	23.668227	5.210943	6.642603	24.440396	0.426565	40.073830	-7.579186	0.000000	0.047419	-0.499253	0.069216	0.088062	-0.664006	0.073542	0.077905	-1.213883	0.073542	0.054196	-1.213883	0.060564	0.044034	-1.018076	0.056238	0.027095	-0.773342	0.051912	0.338712	-5.647647	0.384961	0.000000	0.000000	26.894588	3.623064	10.161069	20.300800	-15.644494	102.666703	12.279969	5.696055	-9.401911	-18.834977	4.977667	-22.633896	16.970683	26.633837	84.276536	-10.100722	-2.155526
2.966667	-4.881506	-10.915232	93.790559	0.185888	0.460527	1.034430	26.629660	-3.877236	2.742563	31.828067	0.555505	44.683145	-4.897974	0.000000	23.787451	5.155021	5.749251	24.643435	0.430109	40.611724	-6.703065	0.000000	0.044090	-0.521219	0.098400	0.081879	-0.693222	0.104550	0.072435	-1.267293	0.104550	0.050390	-1.267293	0.086100	0.040942	-1.062870	0.079950	0.025193	-0.807369	0.073800	0.314930	-5.896137	0.547272	0.000000	0.000000	26.852641	3.726787	9.916612	20.416927	-15.423249	103.429605	12.190669	5.652753	-9.493360	-18.830734	5.138520	-22.682819	17.342010	26.707983	83.982870	-8.903374	-1.758455
2.983333	-5.032880	-10.911191	93.614134	0.186703	0.460187	1.034766	26.969247	-3.814456	3.360721	32.266540	0.563157	44.869309	-5.341537	0.000000	23.738160	5.115674	5.007560	24.606390	0.429463	40.919330	-5.967217	0.000000	0.043454	-0.540277	0.130906	0.080698	-0.718569	0.139088	0.071391	-1.313630	0.139088	0.049664	-1.313630	0.114543	0.040351	-1.101733	0.106362	0.024830	-0.836889	0.098180	0.310388	-6.111722	0.728063	0.000000	0.000000	26.798559	3.807054	9.770413	20.466121	-15.219909	104.173047	12.094167	5.594894	-9.481723	-18.791337	5.297981	-22.747744	17.863944	26.819239	83.829022	-7.835948	-1.364357
3.000000	-5.162638	-10.896857	93.432235	0.187491	0.460202	1.034878	27.179450	-3.754103	3.860025	32.530877	0.567771	44.937065	-5.703234	0.000000	23.515633	5.067719	4.411772	24.332770	0.424687	40.983432	-5.346960	0.000000	0.044321	-0.553801	0.167548	0.082308	-0.736555	0.178020	0.072814	-1.346512	0.178020	0.050654	-1.346512	0.146605	0.041156	-1.129311	0.136133	0.025325	-0.857838	0.125661	0.316578	-6.264707	0.931852	0.000000	0.000000	26.742651	3.839960	9.690209	20.459031	-15.048879	104.824750	12.007494	5.519215	-9.339151	-18.707925	5.476634	-22.823051	18.583004	26.940207	83.844997	-6.964150	-0.965481
3.016667	-5.289745	-10.861683	93.234751	0.188292	0.460542	1.034741	27.252322	-3.713948	4.230971	32.629475	0.569492	44.911874	-5.958878	0.000000	23.097686	5.031790	3.996892	23.804438	0.415466	40.775405	-4.909727	0.000000	0.045203	-0.565936	0.216508	0.083947	-0.752695	0.230040	0.074264	-1.376017	0.230040	0.051663	-1.376017	0.189445	0.041976	-1.154056	0.175913	0.025829	-0.876635	0.162381	0.322882	-6.401980	1.204155	0.000000	0.000000	26.686683	3.804929	9.543855	20.376655	-14.910133	105.234021	11.949581	5.456108	-9.050715	-18.569955	5.618498	-23.213878	14.653428	27.945618	88.195980	-6.656990	-0.210412
3.033333	-5.409963	-10.824744	93.072545	0.189007	0.461192	1.034380	27.213074	-3.706514	4.484906	32.586255	0.568737	44.782047	-6.177453	0.000000	22.521853	5.040446	3.899133	23.053749	0.402364	40.254447	-4.833604	0.000000	0.047588	-0.575881	0.264946	0.088375	-0.765922	0.281506	0.078182	-1.400198	0.281506	0.054388	-1.400198	0.231828	0.044190	-1.174337	0.215269	0.027192	-0.892040	0.198710	0.339913	-6.514485	1.473552	0.000000	0.000000	26.674452	3.665356	9.287256	20.234588	-14.791520	105.470299	11.904203	5.400110	-8.677931	-18.442478	5.988142	-23.409814	14.434355	28.209380	90.114830	-6.426596	0.138298
